<mxfile host="app.diagrams.net" modified="2024-05-14T02:18:43.940Z" agent="Mozilla/5.0 (Windows NT 10.0; Win64; x64) AppleWebKit/537.36 (KHTML, like Gecko) Chrome/124.0.0.0 Safari/537.36" etag="hxdTgnCYVNKUaPOqNvkN" version="24.4.0" type="github">
  <diagram name="PÃ¡gina-1" id="8LrZWqzUgZmfqL69Gb6Y">
    <mxGraphModel dx="1184" dy="1603" grid="1" gridSize="10" guides="1" tooltips="1" connect="1" arrows="1" fold="1" page="1" pageScale="1" pageWidth="827" pageHeight="1169" math="0" shadow="0">
      <root>
        <mxCell id="0" />
        <mxCell id="1" parent="0" />
        <mxCell id="AQGjSyXYlrCB_bRspZmM-3" value="" style="edgeStyle=orthogonalEdgeStyle;rounded=0;orthogonalLoop=1;jettySize=auto;html=1;" edge="1" parent="1" source="AQGjSyXYlrCB_bRspZmM-1" target="AQGjSyXYlrCB_bRspZmM-2">
          <mxGeometry relative="1" as="geometry" />
        </mxCell>
        <mxCell id="AQGjSyXYlrCB_bRspZmM-1" value="INICIO" style="rounded=1;whiteSpace=wrap;html=1;" vertex="1" parent="1">
          <mxGeometry x="369" y="-1120" width="90" height="50" as="geometry" />
        </mxCell>
        <mxCell id="AQGjSyXYlrCB_bRspZmM-5" value="" style="edgeStyle=orthogonalEdgeStyle;rounded=0;orthogonalLoop=1;jettySize=auto;html=1;" edge="1" parent="1" source="AQGjSyXYlrCB_bRspZmM-2" target="AQGjSyXYlrCB_bRspZmM-4">
          <mxGeometry relative="1" as="geometry" />
        </mxCell>
        <mxCell id="AQGjSyXYlrCB_bRspZmM-2" value="s" style="shape=parallelogram;perimeter=parallelogramPerimeter;whiteSpace=wrap;html=1;fixedSize=1;" vertex="1" parent="1">
          <mxGeometry x="369" y="-1040" width="90" height="40" as="geometry" />
        </mxCell>
        <mxCell id="AQGjSyXYlrCB_bRspZmM-7" value="" style="edgeStyle=orthogonalEdgeStyle;rounded=0;orthogonalLoop=1;jettySize=auto;html=1;" edge="1" parent="1" source="AQGjSyXYlrCB_bRspZmM-4" target="AQGjSyXYlrCB_bRspZmM-6">
          <mxGeometry relative="1" as="geometry" />
        </mxCell>
        <mxCell id="AQGjSyXYlrCB_bRspZmM-4" value="s2&lt;div&gt;i=0&lt;/div&gt;" style="whiteSpace=wrap;html=1;" vertex="1" parent="1">
          <mxGeometry x="371" y="-970" width="86" height="40" as="geometry" />
        </mxCell>
        <mxCell id="AQGjSyXYlrCB_bRspZmM-9" value="" style="edgeStyle=orthogonalEdgeStyle;rounded=0;orthogonalLoop=1;jettySize=auto;html=1;" edge="1" parent="1" source="AQGjSyXYlrCB_bRspZmM-6" target="AQGjSyXYlrCB_bRspZmM-8">
          <mxGeometry relative="1" as="geometry" />
        </mxCell>
        <mxCell id="AQGjSyXYlrCB_bRspZmM-11" value="" style="edgeStyle=orthogonalEdgeStyle;rounded=0;orthogonalLoop=1;jettySize=auto;html=1;" edge="1" parent="1" source="AQGjSyXYlrCB_bRspZmM-6" target="AQGjSyXYlrCB_bRspZmM-10">
          <mxGeometry relative="1" as="geometry" />
        </mxCell>
        <mxCell id="AQGjSyXYlrCB_bRspZmM-19" value="" style="edgeStyle=orthogonalEdgeStyle;rounded=0;orthogonalLoop=1;jettySize=auto;html=1;entryX=0;entryY=0.5;entryDx=0;entryDy=0;" edge="1" parent="1" source="AQGjSyXYlrCB_bRspZmM-6" target="AQGjSyXYlrCB_bRspZmM-16">
          <mxGeometry relative="1" as="geometry">
            <mxPoint x="208" y="-840" as="targetPoint" />
            <Array as="points">
              <mxPoint x="280" y="-840" />
              <mxPoint x="280" y="-584" />
              <mxPoint x="360" y="-584" />
              <mxPoint x="360" y="-590" />
            </Array>
          </mxGeometry>
        </mxCell>
        <mxCell id="AQGjSyXYlrCB_bRspZmM-6" value="s.size -1 &amp;gt;= i ?" style="rhombus;whiteSpace=wrap;html=1;" vertex="1" parent="1">
          <mxGeometry x="351" y="-880" width="126" height="80" as="geometry" />
        </mxCell>
        <mxCell id="AQGjSyXYlrCB_bRspZmM-8" value="++i" style="whiteSpace=wrap;html=1;" vertex="1" parent="1">
          <mxGeometry x="540" y="-860" width="50" height="40" as="geometry" />
        </mxCell>
        <mxCell id="AQGjSyXYlrCB_bRspZmM-13" value="" style="edgeStyle=orthogonalEdgeStyle;rounded=0;orthogonalLoop=1;jettySize=auto;html=1;" edge="1" parent="1" source="AQGjSyXYlrCB_bRspZmM-10" target="AQGjSyXYlrCB_bRspZmM-12">
          <mxGeometry relative="1" as="geometry" />
        </mxCell>
        <mxCell id="AQGjSyXYlrCB_bRspZmM-17" value="" style="edgeStyle=orthogonalEdgeStyle;rounded=0;orthogonalLoop=1;jettySize=auto;html=1;" edge="1" parent="1" source="AQGjSyXYlrCB_bRspZmM-10" target="AQGjSyXYlrCB_bRspZmM-16">
          <mxGeometry relative="1" as="geometry" />
        </mxCell>
        <mxCell id="AQGjSyXYlrCB_bRspZmM-10" value="s[i] != &#39; &#39;" style="rhombus;whiteSpace=wrap;html=1;" vertex="1" parent="1">
          <mxGeometry x="374" y="-750" width="80" height="80" as="geometry" />
        </mxCell>
        <mxCell id="AQGjSyXYlrCB_bRspZmM-12" value="s2 += s[i]" style="whiteSpace=wrap;html=1;" vertex="1" parent="1">
          <mxGeometry x="527" y="-735" width="76" height="50" as="geometry" />
        </mxCell>
        <mxCell id="AQGjSyXYlrCB_bRspZmM-15" value="" style="endArrow=none;html=1;rounded=0;entryX=0.5;entryY=1;entryDx=0;entryDy=0;exitX=0.5;exitY=0;exitDx=0;exitDy=0;" edge="1" parent="1" source="AQGjSyXYlrCB_bRspZmM-12" target="AQGjSyXYlrCB_bRspZmM-8">
          <mxGeometry width="50" height="50" relative="1" as="geometry">
            <mxPoint x="565" y="-740" as="sourcePoint" />
            <mxPoint x="577" y="-810" as="targetPoint" />
          </mxGeometry>
        </mxCell>
        <mxCell id="AQGjSyXYlrCB_bRspZmM-21" value="" style="edgeStyle=orthogonalEdgeStyle;rounded=0;orthogonalLoop=1;jettySize=auto;html=1;" edge="1" parent="1" source="AQGjSyXYlrCB_bRspZmM-16" target="AQGjSyXYlrCB_bRspZmM-20">
          <mxGeometry relative="1" as="geometry" />
        </mxCell>
        <mxCell id="AQGjSyXYlrCB_bRspZmM-16" value="i=0" style="whiteSpace=wrap;html=1;" vertex="1" parent="1">
          <mxGeometry x="379" y="-610" width="69" height="39" as="geometry" />
        </mxCell>
        <mxCell id="AQGjSyXYlrCB_bRspZmM-23" value="" style="edgeStyle=orthogonalEdgeStyle;rounded=0;orthogonalLoop=1;jettySize=auto;html=1;" edge="1" parent="1" source="AQGjSyXYlrCB_bRspZmM-20" target="AQGjSyXYlrCB_bRspZmM-22">
          <mxGeometry relative="1" as="geometry" />
        </mxCell>
        <mxCell id="AQGjSyXYlrCB_bRspZmM-31" value="" style="edgeStyle=orthogonalEdgeStyle;rounded=0;orthogonalLoop=1;jettySize=auto;html=1;" edge="1" parent="1" source="AQGjSyXYlrCB_bRspZmM-20" target="AQGjSyXYlrCB_bRspZmM-30">
          <mxGeometry relative="1" as="geometry" />
        </mxCell>
        <mxCell id="AQGjSyXYlrCB_bRspZmM-20" value="i&amp;lt;s2.size" style="rhombus;whiteSpace=wrap;html=1;" vertex="1" parent="1">
          <mxGeometry x="374" y="-530" width="80" height="80" as="geometry" />
        </mxCell>
        <mxCell id="AQGjSyXYlrCB_bRspZmM-25" value="" style="edgeStyle=orthogonalEdgeStyle;rounded=0;orthogonalLoop=1;jettySize=auto;html=1;" edge="1" parent="1" source="AQGjSyXYlrCB_bRspZmM-22" target="AQGjSyXYlrCB_bRspZmM-24">
          <mxGeometry relative="1" as="geometry" />
        </mxCell>
        <mxCell id="AQGjSyXYlrCB_bRspZmM-29" value="" style="edgeStyle=orthogonalEdgeStyle;rounded=0;orthogonalLoop=1;jettySize=auto;html=1;" edge="1" parent="1" source="AQGjSyXYlrCB_bRspZmM-22" target="AQGjSyXYlrCB_bRspZmM-28">
          <mxGeometry relative="1" as="geometry" />
        </mxCell>
        <mxCell id="AQGjSyXYlrCB_bRspZmM-22" value="s2[i]==s2[s2.size()-1-i]" style="rhombus;whiteSpace=wrap;html=1;" vertex="1" parent="1">
          <mxGeometry x="534" y="-520" width="146" height="80" as="geometry" />
        </mxCell>
        <mxCell id="AQGjSyXYlrCB_bRspZmM-27" value="" style="edgeStyle=orthogonalEdgeStyle;rounded=0;orthogonalLoop=1;jettySize=auto;html=1;" edge="1" parent="1" source="AQGjSyXYlrCB_bRspZmM-24" target="AQGjSyXYlrCB_bRspZmM-20">
          <mxGeometry relative="1" as="geometry" />
        </mxCell>
        <mxCell id="AQGjSyXYlrCB_bRspZmM-24" value="++i" style="whiteSpace=wrap;html=1;" vertex="1" parent="1">
          <mxGeometry x="573.5" y="-571" width="67" height="30" as="geometry" />
        </mxCell>
        <mxCell id="AQGjSyXYlrCB_bRspZmM-28" value="palindromo = false" style="whiteSpace=wrap;html=1;" vertex="1" parent="1">
          <mxGeometry x="710" y="-495" width="107" height="30" as="geometry" />
        </mxCell>
        <mxCell id="AQGjSyXYlrCB_bRspZmM-33" value="" style="edgeStyle=orthogonalEdgeStyle;rounded=0;orthogonalLoop=1;jettySize=auto;html=1;" edge="1" parent="1" source="AQGjSyXYlrCB_bRspZmM-30" target="AQGjSyXYlrCB_bRspZmM-32">
          <mxGeometry relative="1" as="geometry" />
        </mxCell>
        <mxCell id="AQGjSyXYlrCB_bRspZmM-37" value="" style="edgeStyle=orthogonalEdgeStyle;rounded=0;orthogonalLoop=1;jettySize=auto;html=1;" edge="1" parent="1" source="AQGjSyXYlrCB_bRspZmM-30" target="AQGjSyXYlrCB_bRspZmM-36">
          <mxGeometry relative="1" as="geometry" />
        </mxCell>
        <mxCell id="AQGjSyXYlrCB_bRspZmM-30" value="palindromo" style="rhombus;whiteSpace=wrap;html=1;" vertex="1" parent="1">
          <mxGeometry x="374" y="-400" width="80" height="80" as="geometry" />
        </mxCell>
        <mxCell id="AQGjSyXYlrCB_bRspZmM-35" value="" style="edgeStyle=orthogonalEdgeStyle;rounded=0;orthogonalLoop=1;jettySize=auto;html=1;" edge="1" parent="1" source="AQGjSyXYlrCB_bRspZmM-32" target="AQGjSyXYlrCB_bRspZmM-34">
          <mxGeometry relative="1" as="geometry" />
        </mxCell>
        <mxCell id="AQGjSyXYlrCB_bRspZmM-32" value="YES" style="shape=parallelogram;perimeter=parallelogramPerimeter;whiteSpace=wrap;html=1;fixedSize=1;" vertex="1" parent="1">
          <mxGeometry x="504" y="-380" width="86" height="40" as="geometry" />
        </mxCell>
        <mxCell id="AQGjSyXYlrCB_bRspZmM-34" value="FIN" style="rounded=1;whiteSpace=wrap;html=1;" vertex="1" parent="1">
          <mxGeometry x="640.5" y="-380" width="77" height="40" as="geometry" />
        </mxCell>
        <mxCell id="AQGjSyXYlrCB_bRspZmM-39" value="" style="edgeStyle=orthogonalEdgeStyle;rounded=0;orthogonalLoop=1;jettySize=auto;html=1;" edge="1" parent="1" source="AQGjSyXYlrCB_bRspZmM-36" target="AQGjSyXYlrCB_bRspZmM-38">
          <mxGeometry relative="1" as="geometry" />
        </mxCell>
        <mxCell id="AQGjSyXYlrCB_bRspZmM-36" value="NO" style="shape=parallelogram;perimeter=parallelogramPerimeter;whiteSpace=wrap;html=1;fixedSize=1;" vertex="1" parent="1">
          <mxGeometry x="220" y="-380" width="94" height="40" as="geometry" />
        </mxCell>
        <mxCell id="AQGjSyXYlrCB_bRspZmM-38" value="FIN" style="rounded=1;whiteSpace=wrap;html=1;" vertex="1" parent="1">
          <mxGeometry x="100" y="-380" width="67" height="40" as="geometry" />
        </mxCell>
        <mxCell id="AQGjSyXYlrCB_bRspZmM-40" value="NO" style="text;html=1;align=center;verticalAlign=middle;resizable=0;points=[];autosize=1;strokeColor=none;fillColor=none;" vertex="1" parent="1">
          <mxGeometry x="300" y="-870" width="40" height="30" as="geometry" />
        </mxCell>
        <mxCell id="AQGjSyXYlrCB_bRspZmM-41" value="NO" style="text;html=1;align=center;verticalAlign=middle;resizable=0;points=[];autosize=1;strokeColor=none;fillColor=none;" vertex="1" parent="1">
          <mxGeometry x="414" y="-660" width="40" height="30" as="geometry" />
        </mxCell>
        <mxCell id="AQGjSyXYlrCB_bRspZmM-49" value="" style="edgeStyle=orthogonalEdgeStyle;rounded=0;orthogonalLoop=1;jettySize=auto;html=1;" edge="1" parent="1" source="AQGjSyXYlrCB_bRspZmM-42" target="AQGjSyXYlrCB_bRspZmM-28">
          <mxGeometry relative="1" as="geometry">
            <mxPoint x="754" y="-460" as="targetPoint" />
            <Array as="points">
              <mxPoint x="764" y="-435" />
            </Array>
          </mxGeometry>
        </mxCell>
        <mxCell id="AQGjSyXYlrCB_bRspZmM-42" value="NO" style="text;html=1;align=center;verticalAlign=middle;resizable=0;points=[];autosize=1;strokeColor=none;fillColor=none;" vertex="1" parent="1">
          <mxGeometry x="374" y="-450" width="40" height="30" as="geometry" />
        </mxCell>
        <mxCell id="AQGjSyXYlrCB_bRspZmM-43" value="NO" style="text;html=1;align=center;verticalAlign=middle;resizable=0;points=[];autosize=1;strokeColor=none;fillColor=none;" vertex="1" parent="1">
          <mxGeometry x="320" y="-390" width="40" height="30" as="geometry" />
        </mxCell>
        <mxCell id="AQGjSyXYlrCB_bRspZmM-44" value="SI" style="text;html=1;align=center;verticalAlign=middle;resizable=0;points=[];autosize=1;strokeColor=none;fillColor=none;" vertex="1" parent="1">
          <mxGeometry x="470" y="-390" width="30" height="30" as="geometry" />
        </mxCell>
        <mxCell id="AQGjSyXYlrCB_bRspZmM-45" value="SI" style="text;html=1;align=center;verticalAlign=middle;resizable=0;points=[];autosize=1;strokeColor=none;fillColor=none;" vertex="1" parent="1">
          <mxGeometry x="414" y="-790" width="30" height="30" as="geometry" />
        </mxCell>
        <mxCell id="AQGjSyXYlrCB_bRspZmM-46" value="SI" style="text;html=1;align=center;verticalAlign=middle;resizable=0;points=[];autosize=1;strokeColor=none;fillColor=none;" vertex="1" parent="1">
          <mxGeometry x="470" y="-740" width="30" height="30" as="geometry" />
        </mxCell>
        <mxCell id="AQGjSyXYlrCB_bRspZmM-47" value="SI" style="text;html=1;align=center;verticalAlign=middle;resizable=0;points=[];autosize=1;strokeColor=none;fillColor=none;" vertex="1" parent="1">
          <mxGeometry x="460" y="-520" width="30" height="30" as="geometry" />
        </mxCell>
      </root>
    </mxGraphModel>
  </diagram>
</mxfile>
